# File created by Blade
# Date/Time:  Tue Apr 07 20:13:45 2015
#---------------------------------------------------------
:version 1.10
:name HOM
:units
  mass 1.0
  length 1.000000
  angle deg
:documentation
     Acclaim Skeleton File
:root
   axis xyz
   order TX TY TZ RX RY RZ
   position 0.000000 0.000000 0.000000
   orientation 0 0 0
:bonedata
   begin
      id 1
      name Spine_dum
      direction 0.000000 1.000000 0.000000
      length 4.885285
      axis 0.0 0.0 0.0 xyz
   end
   begin
      id 2
      name LeftUpLeg_dum
      direction 1.000000 0.000000 0.000000
      length 2.672193
      axis 0.0 0.0 0.0 xyz
   end
   begin
      id 3
      name RightUpLeg_dum
      direction -1.000000 0.000000 0.000000
      length 2.672193
      axis 0.0 0.0 0.0 xyz
   end
   begin
      id 4
      name Spine
      direction 0.000000 1.000000 0.000000
      length 0.000000
      axis 0.0 0.0 0.0 xyz
      dof rx ry rz
   end
   begin
      id 5
      name Spine_dum1
      direction 0.000000 1.000000 0.000000
      length 16.494159
      axis 0.0 0.0 0.0 xyz
   end
   begin
      id 6
      name Spine_dum2
      direction 0.000000 1.000000 0.000000
      length 10.663448
      axis 0.0 0.0 0.0 xyz
   end
   begin
      id 7
      name Spine_dum3
      direction 0.000000 1.000000 0.000000
      length 10.663448
      axis 0.0 0.0 0.0 xyz
   end
   begin
      id 8
      name Head
      direction 0.000000 1.000000 0.000000
      length 4.527550
      axis 0.0 0.0 0.0 xyz
      dof rx ry rz
   end
   begin
      id 9
      name LeftShoulder
      direction 1.000000 0.000000 0.000000
      length 7.531907
      axis 0.0 0.0 -90.0 xyz
      dof rx ry rz
   end
   begin
      id 10
      name LeftArm
      direction 1.000000 0.000000 0.000000
      length 10.229199
      axis 0.0 0.0 -90.0 xyz
      dof rx ry rz
   end
   begin
      id 11
      name LeftForeArm
      direction 1.000000 0.000000 0.000000
      length 8.673495
      axis 0.0 0.0 -90.0 xyz
      dof ry rz rx
   end
   begin
      id 12
      name LeftHand
      direction 0.000000 0.000000 0.000000
      length 0.000000
      axis 0.0 0.0 -90.0 xyz
      dof rx ry rz
   end
   begin
      id 13
      name LeftHand_dum1
      direction 0.000000 0.000000 0.000000
      length 0.000000
      axis 0.0 0.0 -90.0 xyz
   end
   begin
      id 14
      name LeftHand_dum2
      direction 1.000000 0.000000 0.000000
      length 3.937000
      axis 0.0 0.0 -90.0 xyz
   end
   begin
      id 15
      name LeftHandThumb1
      direction 0.000000 0.000000 1.000000
      length 3.937000
      axis 0.0 0.0 -90.0 xyz
      dof rx rz ry
   end
   begin
      id 16
      name RightShoulder
      direction -1.000000 0.000000 0.000000
      length 7.531907
      axis 0.0 0.0 90.0 xyz
      dof rx ry rz
   end
   begin
      id 17
      name RightArm
      direction -1.000000 0.000000 0.000000
      length 10.229199
      axis 0.0 0.0 90.0 xyz
      dof rx ry rz
   end
   begin
      id 18
      name RightForeArm
      direction -1.000000 0.000000 0.000000
      length 8.673495
      axis 0.0 0.0 90.0 xyz
      dof ry rz rx
   end
   begin
      id 19
      name RightHand
      direction 0.000000 0.000000 0.000000
      length 0.000000
      axis 0.0 0.0 90.0 xyz
      dof rx ry rz
   end
   begin
      id 20
      name RightHand_dum1
      direction 0.000000 0.000000 0.000000
      length 0.000000
      axis 0.0 0.0 90.0 xyz
   end
   begin
      id 21
      name RightHand_dum2
      direction -1.000000 0.000000 0.000000
      length 3.937000
      axis 0.0 0.0 90.0 xyz
   end
   begin
      id 22
      name RightHandThumb1
      direction 0.000000 0.000000 1.000000
      length 3.937000
      axis 0.0 0.0 90.0 xyz
      dof rx rz ry
   end
   begin
      id 23
      name LeftUpLeg
      direction 0.000000 -1.000000 0.000000
      length 16.263388
      axis 0.0 0.0 0.0 xyz
      dof rx ry rz
   end
   begin
      id 24
      name LeftLeg
      direction 0.000000 -1.000000 0.000000
      length 14.328163
      axis 0.0 0.0 0.0 xyz
      dof rx ry rz
   end
   begin
      id 25
      name LeftFoot
      direction 0.000000 -0.258819 0.965926
      length 5.031290
      axis 15.0 0.0 0.0 xyz
      dof rx ry rz
   end
   begin
      id 26
      name LeftToeBase
      direction 0.000000 0.000000 1.000000
      length 2.952750
      axis 0.0 0.0 0.0 xyz
      dof rx ry rz
   end
   begin
      id 27
      name RightUpLeg
      direction 0.000000 -1.000000 0.000000
      length 16.263388
      axis 0.0 0.0 0.0 xyz
      dof rx ry rz
   end
   begin
      id 28
      name RightLeg
      direction 0.000000 -1.000000 0.000000
      length 14.328163
      axis 0.0 0.0 0.0 xyz
      dof rx ry rz
   end
   begin
      id 29
      name RightFoot
      direction 0.000000 -0.258819 0.965926
      length 5.031290
      axis 15.0 0.0 0.0 xyz
      dof rx ry rz
   end
   begin
      id 30
      name RightToeBase
      direction 0.000000 0.000000 1.000000
      length 2.952750
      axis 0.0 0.0 0.0 xyz
      dof rx ry rz
   end
:hierarchy
   begin
      root Spine_dum LeftUpLeg_dum RightUpLeg_dum
      Spine_dum Spine
      LeftUpLeg_dum LeftUpLeg
      RightUpLeg_dum RightUpLeg
      Spine Spine_dum1 Spine_dum2 Spine_dum3
      Spine_dum1 Head
      Spine_dum2 LeftShoulder
      Spine_dum3 RightShoulder
      LeftShoulder LeftArm
      LeftArm LeftForeArm
      LeftForeArm LeftHand
      LeftHand LeftHand_dum1 LeftHand_dum2
      LeftHand_dum1 LeftHandThumb1
      RightShoulder RightArm
      RightArm RightForeArm
      RightForeArm RightHand
      RightHand RightHand_dum1 RightHand_dum2
      RightHand_dum1 RightHandThumb1
      LeftUpLeg LeftLeg
      LeftLeg LeftFoot
      LeftFoot LeftToeBase
      RightUpLeg RightLeg
      RightLeg RightFoot
      RightFoot RightToeBase
   end

# File created by Blade
# Date/Time:  Tue Apr 07 20:13:55 2015
# Frame Rate: 120.000 fps
#------------------------------------------------------
:FULLY-SPECIFIED
:DEGREES
1
root 2.645493 32.756700 -7.551611 11.597524 2.660158 -0.427927
Spine -13.622395 -5.962013 -0.077835
Head 15.430300 -1.463390 -1.865228
LeftShoulder -22.921999 41.435299 21.455445
LeftArm 55.535943 -58.909305 -61.177531
LeftForeArm 9.537026 0.000000 -2.430506
LeftHand 4.716942 -0.000000 7.661570
LeftHandThumb1 -26.253704 0.000000 33.147579
RightShoulder -9.582197 4.444550 -34.547016
RightArm 10.375056 15.656316 35.129453
RightForeArm -16.351738 -0.000000 0.277455
RightHand 0.829095 0.000000 1.025492
RightHandThumb1 -24.326973 -0.000000 -32.862282
LeftUpLeg -6.197858 -0.524711 2.046156
LeftLeg -2.888851 -0.000000 0.000000
LeftFoot -5.517843 3.246120 -19.185176
LeftToeBase -5.366668 -0.000000 0.000000
RightUpLeg -5.987233 -2.373086 -0.260304
RightLeg -3.981558 -0.000000 0.000000
RightFoot -6.078232 -6.687992 7.196002
RightToeBase 0.811808 -0.000000 -0.000000
2
root 2.650124 32.757366 -7.553841 11.581914 2.660223 -0.417829
Spine -13.620212 -5.966186 -0.067351
Head 15.585585 -1.409853 -1.893713
LeftShoulder -22.891653 41.452949 21.449339
LeftArm 55.558635 -58.815807 -61.256359
LeftForeArm 9.439102 -0.000000 -2.458050
LeftHand 4.773690 0.000000 7.604719
LeftHandThumb1 -26.253704 0.000000 33.147579
RightShoulder -9.550307 4.425044 -34.510249
RightArm 10.390570 15.716467 35.231810
RightForeArm -16.376370 0.000000 0.278576
RightHand 0.837062 -0.000000 1.037646
RightHandThumb1 -24.326973 -0.000000 -32.862282
LeftUpLeg -6.187724 -0.507377 2.025891
LeftLeg -2.885536 -0.000000 0.000000
LeftFoot -5.503282 3.227753 -19.194513
LeftToeBase -5.401214 -0.000000 0.000000
RightUpLeg -5.969912 -2.368033 -0.278709
RightLeg -3.992225 -0.000000 0.000000
RightFoot -6.065620 -6.702211 7.209622
RightToeBase 0.832822 -0.000000 -0.000000
3
root 2.653542 32.757823 -7.555988 11.572718 2.668459 -0.414088
Spine -13.630442 -5.962971 -0.052154
Head 15.769076 -1.386933 -1.925912
LeftShoulder -22.843680 41.473010 21.447383
LeftArm 55.550136 -58.704940 -61.291972
LeftForeArm 9.363523 -0.000000 -2.485439
LeftHand 4.786815 0.000000 7.551842
LeftHandThumb1 -26.253704 0.000000 33.147579
RightShoulder -9.527512 4.410816 -34.468086
RightArm 10.397252 15.715284 35.295034
RightForeArm -16.286195 -0.000000 0.265312
RightHand 0.856133 0.000000 1.043590
RightHandThumb1 -24.326973 -0.000000 -32.862282
LeftUpLeg -6.181970 -0.499295 2.014758
LeftLeg -2.888379 -0.000000 0.000000
LeftFoot -5.488068 3.217139 -19.176076
LeftToeBase -5.427190 -0.000000 0.000000
RightUpLeg -5.963150 -2.383300 -0.283193
RightLeg -3.994574 -0.000000 0.000000
RightFoot -6.055247 -6.714080 7.194438
RightToeBase 0.819717 -0.000000 -0.000000
4
root 2.656744 32.758120 -7.558038 11.565267 2.668913 -0.420424
Spine -13.644655 -5.966995 -0.023027
Head 15.965813 -1.350367 -1.961412
LeftShoulder -22.815964 41.480149 21.444452
LeftArm 55.579135 -58.602140 -61.391934
LeftForeArm 9.291364 0.000000 -2.496573
LeftHand 4.724147 0.000000 7.537699
LeftHandThumb1 -26.253704 0.000000 33.147579
RightShoulder -9.484048 4.434475 -34.451192
RightArm 10.377216 15.706998 35.395062
RightForeArm -16.317560 -0.000000 0.242452
RightHand 0.870098 -0.000000 1.149581
RightHandThumb1 -24.326973 -0.000000 -32.862282
LeftUpLeg -6.172678 -0.508363 2.018299
LeftLeg -2.897709 -0.000000 0.000000
LeftFoot -5.488947 3.216160 -19.184685
LeftToeBase -5.363253 -0.000000 0.000000
RightUpLeg -5.960391 -2.384798 -0.280186
RightLeg -3.995035 -0.000000 0.000000
RightFoot -6.043813 -6.722565 7.167487
RightToeBase 0.812428 -0.000000 -0.000000
5
root 2.661038 32.758405 -7.560609 11.558237 2.675019 -0.411028
Spine -13.656593 -5.975620 -0.010570
Head 16.175623 -1.314384 -1.996089
LeftShoulder -22.816472 41.511174 21.407456
LeftArm 55.710641 -58.512208 -61.553139
LeftForeArm 9.249118 -0.000000 -2.545136
LeftHand 4.689728 -0.000000 7.494868
LeftHandThumb1 -26.253704 0.000000 33.147579
RightShoulder -9.452470 4.435723 -34.432695
RightArm 10.386949 15.732848 35.496518
RightForeArm -16.296277 -0.000000 0.196554
RightHand 0.911120 -0.000000 1.236269
RightHandThumb1 -24.326973 -0.000000 -32.862282
LeftUpLeg -6.175184 -0.493212 2.000319
LeftLeg -2.888412 -0.000000 0.000000
LeftFoot -5.479440 3.192955 -19.179930
LeftToeBase -5.387362 -0.000000 0.000000
RightUpLeg -5.957421 -2.391205 -0.293260
RightLeg -3.994114 -0.000000 0.000000
RightFoot -6.044706 -6.742961 7.157059
RightToeBase 0.811972 -0.000000 -0.000000
6
root 2.664271 32.758505 -7.561922 11.552316 2.681534 -0.411053
Spine -13.674804 -5.978088 0.009379
Head 16.398664 -1.273483 -2.023498
LeftShoulder -22.803363 41.534336 21.392219
LeftArm 55.949692 -58.477070 -61.846702
LeftForeArm 9.348059 0.000000 -2.632225
LeftHand 4.728060 -0.000000 7.362864
LeftHandThumb1 -26.253704 0.000000 33.147579
RightShoulder -9.419446 4.443152 -34.408070
RightArm 10.381147 15.683438 35.563200
RightForeArm -16.229814 -0.000000 0.152830
RightHand 0.932164 -0.000000 1.343057
RightHandThumb1 -24.326973 -0.000000 -32.862282
LeftUpLeg -6.160658 -0.525526 1.999819
LeftLeg -2.912872 -0.000000 0.000000
LeftFoot -5.477908 3.222684 -19.215590
LeftToeBase -5.341461 -0.000000 0.000000
RightUpLeg -5.954203 -2.397430 -0.297640
RightLeg -3.990445 -0.000000 0.000000
RightFoot -6.045960 -6.741851 7.173111
RightToeBase 0.838952 -0.000000 -0.000000
7
root 2.668060 32.758434 -7.563806 11.542096 2.683469 -0.403080
Spine -13.681235 -5.966312 0.014866
Head 16.604417 -1.237114 -2.038489
LeftShoulder -22.777323 41.528349 21.389334
LeftArm 56.175936 -58.434563 -62.101691
LeftForeArm 9.344411 -0.000000 -2.745731
LeftHand 4.713384 0.000000 7.253850
LeftHandThumb1 -26.253704 0.000000 33.147579
RightShoulder -9.407939 4.419446 -34.373672
RightArm 10.416058 15.669105 35.636949
RightForeArm -16.162462 0.000000 0.091387
RightHand 0.860369 0.000000 1.416948
RightHandThumb1 -24.326973 -0.000000 -32.862282
LeftUpLeg -6.156437 -0.511545 1.982367
LeftLeg -2.905863 -0.000000 0.000000
LeftFoot -5.474239 3.202404 -19.196291
LeftToeBase -5.314280 -0.000000 0.000000
RightUpLeg -5.946526 -2.389744 -0.310136
RightLeg -3.992113 -0.000000 0.000000
RightFoot -6.043595 -6.772255 7.155935
RightToeBase 0.812309 -0.000000 -0.000000
8
root 2.672295 32.758146 -7.565934 11.535342 2.697376 -0.391855
Spine -13.688984 -5.962535 0.018873
Head 16.801802 -1.225985 -2.063933
LeftShoulder -22.755401 41.551367 21.390023
LeftArm 56.293764 -58.316337 -62.226852
LeftForeArm 9.129910 -0.000000 -2.853340
LeftHand 4.639661 0.000000 7.078706
LeftHandThumb1 -26.253704 0.000000 33.147579
RightShoulder -9.406251 4.406782 -34.356242
RightArm 10.443478 15.653107 35.724962
RightForeArm -16.088819 -0.000000 0.020332
RightHand 0.933448 -0.000000 1.376289
RightHandThumb1 -24.326973 -0.000000 -32.862282
LeftUpLeg -6.152722 -0.525028 1.965827
LeftLeg -2.910449 -0.000000 0.000000
LeftFoot -5.468663 3.197325 -19.200342
LeftToeBase -5.331513 -0.000000 0.000000
RightUpLeg -5.936965 -2.398621 -0.328296
RightLeg -3.998721 -0.000000 0.000000
RightFoot -6.044501 -6.777467 7.149657
RightToeBase 0.823384 -0.000000 -0.000000
